<?xml version="1.0" encoding="utf-8"?>
<!-- Generator: Adobe Illustrator 17.0.0, SVG Export Plug-In . SVG Version: 6.00 Build 0)  -->
<!DOCTYPE svg PUBLIC "-//W3C//DTD SVG 1.1//EN" "http://www.w3.org/Graphics/SVG/1.1/DTD/svg11.dtd">
<svg version="1.1" id="Capa_1" xmlns="http://www.w3.org/2000/svg" xmlns:xlink="http://www.w3.org/1999/xlink" x="0px" y="0px"
	 width="357px" height="357px" viewBox="0 0 357 357" enable-background="new 0 0 357 357" xml:space="preserve">
<rect x="162.25" y="10" stroke="#000000" stroke-miterlimit="10" width="32.5" height="98"/>
<rect x="58.25" y="49" transform="matrix(0.7071 -0.7071 0.7071 0.7071 -47.4759 81.383)" stroke="#000000" stroke-miterlimit="10" width="32.5" height="98"/>
<path stroke="#000000" stroke-miterlimit="10" d="M261.448,156.187l-85.919,85.919l-48.16-48.186l37.724-37.732H0V357h357V156.187
	H261.448z M108.786,268.173c-3.947,0.96-7.51-2.577-6.633-6.523l12.17-54.682l48.16,48.187L108.786,268.173z"/>
<g>
	<path d="M335.027,84.13c6.441-6.442,6.441-16.83,0-23.271l-21.49-21.49c-8.305-8.305-21.79-8.305-30.124,0l-20.585,20.585
		l48.187,48.187L335.027,84.13z"/>
	<polygon points="262.407,156.722 298.463,120.666 250.276,72.48 166.053,156.722 	"/>
</g>
</svg>
