<?xml version="1.0" encoding="utf-8"?>
<!-- Generator: Adobe Illustrator 17.0.0, SVG Export Plug-In . SVG Version: 6.00 Build 0)  -->
<!DOCTYPE svg PUBLIC "-//W3C//DTD SVG 1.1//EN" "http://www.w3.org/Graphics/SVG/1.1/DTD/svg11.dtd">
<svg version="1.1" id="Capa_1" xmlns="http://www.w3.org/2000/svg" xmlns:xlink="http://www.w3.org/1999/xlink" x="0px" y="0px"
	 width="357px" height="357px" viewBox="0 0 357 357" enable-background="new 0 0 357 357" xml:space="preserve">
<rect x="-0.75" y="151.312" stroke="#000000" stroke-miterlimit="10" width="163" height="91.688"/>
<rect x="194.25" y="151.312" stroke="#000000" stroke-miterlimit="10" width="163" height="91.688"/>
<rect x="-0.25" y="265.312" stroke="#000000" stroke-miterlimit="10" width="163" height="91.688"/>
<rect x="161.25" stroke="#000000" stroke-miterlimit="10" width="32.5" height="98"/>
<rect x="265.25" y="39" transform="matrix(0.7071 0.7071 -0.7071 0.7071 144.6749 -173.276)" stroke="#000000" stroke-miterlimit="10" width="32.5" height="98"/>
<rect x="57.25" y="39" transform="matrix(0.7071 -0.7071 0.7071 0.7071 -40.6977 77.747)" stroke="#000000" stroke-miterlimit="10" width="32.5" height="98"/>
<path stroke="#000000" stroke-miterlimit="10" d="M194.861,265.312V357h163v-91.688H194.861z M234.75,323
	c-8.56,0-15.5-6.94-15.5-15.5s6.94-15.5,15.5-15.5s15.5,6.94,15.5,15.5S243.31,323,234.75,323z M276.361,323
	c-8.56,0-15.5-6.94-15.5-15.5s6.94-15.5,15.5-15.5s15.5,6.94,15.5,15.5S284.922,323,276.361,323z M316.75,323
	c-8.56,0-15.5-6.94-15.5-15.5s6.94-15.5,15.5-15.5s15.5,6.94,15.5,15.5S325.31,323,316.75,323z"/>
</svg>
