<?xml version="1.0" encoding="iso-8859-1"?>
<!-- Generator: Adobe Illustrator 16.0.0, SVG Export Plug-In . SVG Version: 6.00 Build 0)  -->
<!DOCTYPE svg PUBLIC "-//W3C//DTD SVG 1.1//EN" "http://www.w3.org/Graphics/SVG/1.1/DTD/svg11.dtd">
<svg version="1.1" id="Capa_1" xmlns="http://www.w3.org/2000/svg" xmlns:xlink="http://www.w3.org/1999/xlink" x="0px" y="0px"
	 width="24px" height="24px" viewBox="0 0 24 24" style="enable-background:new 0 0 24 24;" xml:space="preserve">
<g>
	<path d="M20,2c-0.512,0-0.971,0.181-1.379,0.503L1.83,9.033C1.646,8.701,1.432,8.5,1.2,8.5C0.537,8.5,0,10.067,0,12
		c0,1.934,0.537,3.5,1.2,3.5c0.231,0,0.445-0.199,0.628-0.529l3.105,1.238c0.219,1.607,1.423,3.172,3,3.764
		c0.458,0.16,0.905,0.241,1.327,0.241c0.538,0,1.033-0.132,1.454-0.392c0.374-0.231,0.66-0.564,0.866-0.963L19.2,21.9
		c0,0-0.03-0.037-0.076-0.103C19.396,21.925,19.688,22,20,22c2.748,0,4-5.184,4-10C24,7.184,22.748,2,20,2z M10.188,18.973
		c-0.488,0.301-1.169,0.32-1.913,0.062c-1.006-0.379-1.854-1.341-2.205-2.369l4.585,1.829
		C10.536,18.689,10.381,18.854,10.188,18.973z M20,20c-0.514,0-2-2.751-2-8c0-5.25,1.486-8,2-8s2,2.75,2,8
		C22,17.249,20.514,20,20,20z"/>
</g>
<g>
</g>
<g>
</g>
<g>
</g>
<g>
</g>
<g>
</g>
<g>
</g>
<g>
</g>
<g>
</g>
<g>
</g>
<g>
</g>
<g>
</g>
<g>
</g>
<g>
</g>
<g>
</g>
<g>
</g>
</svg>
